<mxfile host="app.diagrams.net" modified="2022-07-21T12:04:52.049Z" agent="5.0 (X11; Linux x86_64) AppleWebKit/537.36 (KHTML, like Gecko) Chrome/103.0.0.0 Safari/537.36" etag="tRIhvECjKWGOu_pwd0CD" version="18.0.4" type="github">
  <diagram id="P69tAXFs2tNeaM_hII8h" name="Page-1">
    <mxGraphModel dx="2177" dy="773" grid="1" gridSize="10" guides="1" tooltips="1" connect="1" arrows="1" fold="1" page="1" pageScale="1" pageWidth="827" pageHeight="1169" math="0" shadow="0">
      <root>
        <mxCell id="0" />
        <mxCell id="1" parent="0" />
        <mxCell id="ApgkvsSMv7f6DMbq_zhc-23" value="" style="rounded=0;whiteSpace=wrap;html=1;fontSize=20;fillColor=#dae8fc;strokeColor=#6c8ebf;" vertex="1" parent="1">
          <mxGeometry x="490" y="960" width="540" height="830" as="geometry" />
        </mxCell>
        <mxCell id="ApgkvsSMv7f6DMbq_zhc-22" value="" style="rounded=0;whiteSpace=wrap;html=1;fontSize=20;fillColor=#dae8fc;strokeColor=#6c8ebf;" vertex="1" parent="1">
          <mxGeometry x="-390" y="980" width="540" height="830" as="geometry" />
        </mxCell>
        <mxCell id="ApgkvsSMv7f6DMbq_zhc-21" value="" style="rounded=0;whiteSpace=wrap;html=1;fontSize=20;fillColor=#dae8fc;strokeColor=#6c8ebf;" vertex="1" parent="1">
          <mxGeometry x="-310" y="240" width="1260" height="630" as="geometry" />
        </mxCell>
        <mxCell id="ApgkvsSMv7f6DMbq_zhc-1" value="Drop here" style="whiteSpace=wrap;html=1;aspect=fixed;" vertex="1" parent="1">
          <mxGeometry x="-190" y="320" width="350" height="350" as="geometry" />
        </mxCell>
        <mxCell id="ApgkvsSMv7f6DMbq_zhc-2" value="Upload" style="labelPosition=center;verticalLabelPosition=middle;align=center;html=1;shape=mxgraph.basic.shaded_button;dx=10;fillColor=#E6E6E6;strokeColor=none;" vertex="1" parent="1">
          <mxGeometry x="-92.5" y="700" width="145" height="60" as="geometry" />
        </mxCell>
        <mxCell id="ApgkvsSMv7f6DMbq_zhc-3" value="Choose from sample" style="labelPosition=center;verticalLabelPosition=middle;align=center;html=1;shape=mxgraph.basic.shaded_button;dx=10;fillColor=#E6E6E6;strokeColor=none;" vertex="1" parent="1">
          <mxGeometry x="-92.5" y="780" width="155" height="60" as="geometry" />
        </mxCell>
        <mxCell id="ApgkvsSMv7f6DMbq_zhc-4" value="" style="shape=flexArrow;endArrow=classic;html=1;rounded=0;width=40;" edge="1" parent="1">
          <mxGeometry width="50" height="50" relative="1" as="geometry">
            <mxPoint x="190" y="490" as="sourcePoint" />
            <mxPoint x="450" y="490" as="targetPoint" />
          </mxGeometry>
        </mxCell>
        <mxCell id="ApgkvsSMv7f6DMbq_zhc-5" value="Convert" style="edgeLabel;html=1;align=center;verticalAlign=middle;resizable=0;points=[];" vertex="1" connectable="0" parent="ApgkvsSMv7f6DMbq_zhc-4">
          <mxGeometry x="0.5077" y="-5" relative="1" as="geometry">
            <mxPoint x="-75" y="-5" as="offset" />
          </mxGeometry>
        </mxCell>
        <mxCell id="ApgkvsSMv7f6DMbq_zhc-7" style="edgeStyle=orthogonalEdgeStyle;rounded=0;orthogonalLoop=1;jettySize=auto;html=1;" edge="1" parent="1" source="ApgkvsSMv7f6DMbq_zhc-6">
          <mxGeometry relative="1" as="geometry">
            <mxPoint x="300" y="460" as="targetPoint" />
          </mxGeometry>
        </mxCell>
        <mxCell id="ApgkvsSMv7f6DMbq_zhc-6" value="Button" style="text;html=1;align=center;verticalAlign=middle;resizable=0;points=[];autosize=1;strokeColor=none;fillColor=none;" vertex="1" parent="1">
          <mxGeometry x="275" y="370" width="50" height="20" as="geometry" />
        </mxCell>
        <mxCell id="ApgkvsSMv7f6DMbq_zhc-8" value="Empty placeholder for until model is finished" style="whiteSpace=wrap;html=1;aspect=fixed;" vertex="1" parent="1">
          <mxGeometry x="477" y="330" width="350" height="350" as="geometry" />
        </mxCell>
        <mxCell id="ApgkvsSMv7f6DMbq_zhc-9" value="Drop here" style="whiteSpace=wrap;html=1;aspect=fixed;" vertex="1" parent="1">
          <mxGeometry x="-230" y="1040" width="350" height="350" as="geometry" />
        </mxCell>
        <mxCell id="ApgkvsSMv7f6DMbq_zhc-10" value="Upload" style="labelPosition=center;verticalLabelPosition=middle;align=center;html=1;shape=mxgraph.basic.shaded_button;dx=10;fillColor=#E6E6E6;strokeColor=none;" vertex="1" parent="1">
          <mxGeometry x="-132.5" y="1420" width="145" height="60" as="geometry" />
        </mxCell>
        <mxCell id="ApgkvsSMv7f6DMbq_zhc-11" value="Choose from sample" style="labelPosition=center;verticalLabelPosition=middle;align=center;html=1;shape=mxgraph.basic.shaded_button;dx=10;fillColor=#E6E6E6;strokeColor=none;" vertex="1" parent="1">
          <mxGeometry x="-132.5" y="1500" width="155" height="60" as="geometry" />
        </mxCell>
        <mxCell id="ApgkvsSMv7f6DMbq_zhc-12" value="&lt;font style=&quot;font-size: 50px;&quot;&gt;OR&lt;/font&gt;" style="text;html=1;strokeColor=none;fillColor=none;align=center;verticalAlign=middle;whiteSpace=wrap;rounded=0;" vertex="1" parent="1">
          <mxGeometry x="270" y="900" width="80" height="50" as="geometry" />
        </mxCell>
        <mxCell id="ApgkvsSMv7f6DMbq_zhc-13" value="Convert" style="labelPosition=center;verticalLabelPosition=middle;align=center;html=1;shape=mxgraph.basic.shaded_button;dx=10;fillColor=#E6E6E6;strokeColor=none;" vertex="1" parent="1">
          <mxGeometry x="-226.25" y="1600" width="342.5" height="140" as="geometry" />
        </mxCell>
        <mxCell id="ApgkvsSMv7f6DMbq_zhc-14" value="" style="shape=flexArrow;endArrow=classic;html=1;rounded=0;fontSize=50;" edge="1" parent="1">
          <mxGeometry width="50" height="50" relative="1" as="geometry">
            <mxPoint x="160" y="1270" as="sourcePoint" />
            <mxPoint x="500" y="1270" as="targetPoint" />
          </mxGeometry>
        </mxCell>
        <mxCell id="ApgkvsSMv7f6DMbq_zhc-15" value="&lt;font style=&quot;font-size: 20px;&quot;&gt;Loads into new page&lt;/font&gt;" style="text;html=1;align=center;verticalAlign=middle;resizable=0;points=[];autosize=1;strokeColor=none;fillColor=none;fontSize=50;" vertex="1" parent="1">
          <mxGeometry x="230" y="1190" width="200" height="80" as="geometry" />
        </mxCell>
        <mxCell id="ApgkvsSMv7f6DMbq_zhc-16" value="New image" style="whiteSpace=wrap;html=1;aspect=fixed;" vertex="1" parent="1">
          <mxGeometry x="540" y="1040" width="350" height="350" as="geometry" />
        </mxCell>
        <mxCell id="ApgkvsSMv7f6DMbq_zhc-17" value="Save" style="labelPosition=center;verticalLabelPosition=middle;align=center;html=1;shape=mxgraph.basic.shaded_button;dx=10;fillColor=#E6E6E6;strokeColor=none;" vertex="1" parent="1">
          <mxGeometry x="642.5" y="1420" width="145" height="60" as="geometry" />
        </mxCell>
        <mxCell id="ApgkvsSMv7f6DMbq_zhc-18" value="Share" style="labelPosition=center;verticalLabelPosition=middle;align=center;html=1;shape=mxgraph.basic.shaded_button;dx=10;fillColor=#E6E6E6;strokeColor=none;" vertex="1" parent="1">
          <mxGeometry x="642.5" y="1500" width="145" height="60" as="geometry" />
        </mxCell>
      </root>
    </mxGraphModel>
  </diagram>
</mxfile>
